<svg xmlns="http://www.w3.org/2000/svg" version="1.1" xmlns:xlink="http://www.w3.org/1999/xlink" xmlns:svgjs="http://svgjs.dev/svgjs" width="1500" height="625" viewBox="0 0 1500 625"><g transform="matrix(1,0,0,1,-0.9090909090909918,0.49556304193492906)"><svg viewBox="0 0 396 165" data-background-color="#000000" preserveAspectRatio="xMidYMid meet" height="625" width="1500" xmlns="http://www.w3.org/2000/svg" xmlns:xlink="http://www.w3.org/1999/xlink"><g id="tight-bounds" transform="matrix(1,0,0,1,0.2400000000000091,-0.13082864307082787)"><svg viewBox="0 0 395.52 165.26165728614166" height="165.26165728614166" width="395.52"><g><svg viewBox="0 0 395.52 165.26165728614166" height="165.26165728614166" width="395.52"><g transform="matrix(1,0,0,1,0,119.81166990529621)"><svg viewBox="0 0 395.52 45.44998738084544" height="45.44998738084544" width="395.52"><g id="textblocktransform"><svg viewBox="0 0 395.52 45.44998738084544" height="45.44998738084544" width="395.52" id="textblock"><g><svg viewBox="0 0 395.52 27.54675566485157" height="27.54675566485157" width="395.52"><g transform="matrix(1,0,0,1,0,0)"><svg width="395.52" viewBox="1.5 -38.55 565.25 39.65" height="27.54675566485157" data-palette-color="#d8ba0a"><g class="wordmark-text-0" data-fill-palette-color="primary" id="text-0"><path d="M21.05 0.5Q15.7 0.5 11.2-2.02 6.7-4.55 4.1-9.03 1.5-13.5 1.5-19L1.5-19Q1.5-24.8 4.1-29.25 6.7-33.7 11.1-36.13 15.5-38.55 20.75-38.55L20.75-38.55Q25.8-38.55 29.28-36.77 32.75-35 35.85-31.8L35.85-31.8Q35.95-31.7 36.15-31.7L36.15-31.7Q36.45-31.7 37.2-32.15L37.2-32.15 37.8-31.4 30.9-25.95 30.3-26.7Q30.6-26.9 30.78-27.23 30.95-27.55 30.75-27.7L30.75-27.7Q28.65-29.75 26.38-30.83 24.1-31.9 20.85-31.9L20.85-31.9Q17.45-31.9 14.6-30.23 11.75-28.55 10.1-25.6 8.45-22.65 8.45-19L8.45-19Q8.45-15.5 10.2-12.63 11.95-9.75 14.85-8.1 17.75-6.45 21.05-6.45L21.05-6.45Q24.15-6.45 26.35-7.53 28.55-8.6 30.5-10.75L30.5-10.75 30.6-10.95Q30.6-11.2 30.38-11.53 30.15-11.85 29.9-12L29.9-12 30.55-12.7 38-6.45 37.4-5.7Q37.1-5.95 36.65-6.15 36.2-6.35 36.05-6.15L36.05-6.15Q32.9-2.75 29.45-1.13 26 0.5 21.05 0.5L21.05 0.5ZM52.5 0.6Q48.8 0.6 45.97-0.98 43.15-2.55 41.57-5.3 40-8.05 40-11.5L40-11.5Q40-14.9 41.57-17.7 43.15-20.5 46-22.13 48.85-23.75 52.5-23.75L52.5-23.75Q56-23.75 58.85-22.18 61.7-20.6 63.35-17.82 65-15.05 65-11.5L65-11.5Q65-8.4 63.52-5.63 62.05-2.85 59.2-1.13 56.35 0.6 52.5 0.6L52.5 0.6ZM52.5-5.15Q55.45-5.15 57.27-6.88 59.1-8.6 59.1-11.35L59.1-11.35Q59.1-14.2 57.27-16.05 55.45-17.9 52.5-17.9L52.5-17.9Q49.75-17.9 47.9-16.07 46.05-14.25 46.05-11.5L46.05-11.5Q46.05-8.6 47.9-6.88 49.75-5.15 52.5-5.15L52.5-5.15ZM106.2-13.45L106.2-1.5Q106.2-1.25 106.57-1.1 106.95-0.95 107.34-0.95L107.34-0.95 107.34 0 98.55 0 98.55-0.95Q98.95-0.95 99.32-1.1 99.7-1.25 99.7-1.5L99.7-1.5 99.7-11.9Q99.7-18.1 95.59-18.1L95.59-18.1Q93.59-18.1 92.5-16.45 91.4-14.8 91.4-11.5L91.4-11.5 91.4-1.5Q91.4-1.25 91.77-1.1 92.15-0.95 92.55-0.95L92.55-0.95 92.55 0 83.8 0 83.8-0.95Q84.2-0.95 84.57-1.1 84.95-1.25 84.95-1.5L84.95-1.5 84.95-11.9Q84.95-14.65 84.09-16.38 83.25-18.1 80.95-18.1L80.95-18.1Q79.15-18.1 78.07-16.78 77-15.45 76.8-12.8L76.8-12.8 76.8-1.5Q76.8-1.25 77.2-1.1 77.59-0.95 77.95-0.95L77.95-0.95 77.95 0 69.05 0 69.05-0.95Q69.4-0.95 69.8-1.1 70.2-1.25 70.2-1.5L70.2-1.5 70.2-21.5Q70.2-21.75 69.82-21.9 69.45-22.05 69.09-22.05L69.09-22.05 69.09-23 76.8-23 76.8-21.65Q78.8-23.5 81.9-23.5L81.9-23.5Q84.7-23.5 86.72-22.43 88.75-21.35 89.9-19.45L89.9-19.45Q90.8-21.3 92.67-22.4 94.55-23.5 96.9-23.5L96.9-23.5Q101.59-23.5 103.9-20.7 106.2-17.9 106.2-13.45L106.2-13.45ZM149.09-13.45L149.09-1.5Q149.09-1.25 149.47-1.1 149.84-0.95 150.24-0.95L150.24-0.95 150.24 0 141.44 0 141.44-0.95Q141.84-0.95 142.22-1.1 142.59-1.25 142.59-1.5L142.59-1.5 142.59-11.9Q142.59-18.1 138.49-18.1L138.49-18.1Q136.49-18.1 135.39-16.45 134.29-14.8 134.29-11.5L134.29-11.5 134.29-1.5Q134.29-1.25 134.67-1.1 135.04-0.95 135.44-0.95L135.44-0.95 135.44 0 126.69 0 126.69-0.95Q127.09-0.95 127.47-1.1 127.84-1.25 127.84-1.5L127.84-1.5 127.84-11.9Q127.84-14.65 126.99-16.38 126.14-18.1 123.84-18.1L123.84-18.1Q122.04-18.1 120.97-16.78 119.89-15.45 119.69-12.8L119.69-12.8 119.69-1.5Q119.69-1.25 120.09-1.1 120.49-0.95 120.84-0.95L120.84-0.95 120.84 0 111.94 0 111.94-0.95Q112.29-0.95 112.69-1.1 113.09-1.25 113.09-1.5L113.09-1.5 113.09-21.5Q113.09-21.75 112.72-21.9 112.34-22.05 111.99-22.05L111.99-22.05 111.99-23 119.69-23 119.69-21.65Q121.69-23.5 124.79-23.5L124.79-23.5Q127.59-23.5 129.62-22.43 131.64-21.35 132.79-19.45L132.79-19.45Q133.69-21.3 135.57-22.4 137.44-23.5 139.79-23.5L139.79-23.5Q144.49-23.5 146.79-20.7 149.09-17.9 149.09-13.45L149.09-13.45ZM166.49-24.05Q170.34-24.05 173.14-22.38 175.94-20.7 177.39-17.85 178.84-15 178.84-11.55L178.84-11.55Q178.84-10.5 178.69-9.45L178.69-9.45 160.39-9.45Q160.59-7.05 162.49-5.7 164.39-4.35 167.04-4.35L167.04-4.35Q168.84-4.35 170.07-4.85 171.29-5.35 172.24-6.35L172.24-6.35Q172.34-6.55 172.34-6.6L172.34-6.6Q172.34-6.8 172.19-7.03 172.04-7.25 171.89-7.35L171.89-7.35 172.49-8.1 178.04-3.75 177.49-3Q176.74-3.45 176.44-3.1L176.44-3.1Q172.94 1.1 167.04 1.1L167.04 1.1Q163.24 1.1 160.34-0.58 157.44-2.25 155.87-5.08 154.29-7.9 154.29-11.35L154.29-11.35Q154.29-15 155.84-17.9 157.39-20.8 160.17-22.43 162.94-24.05 166.49-24.05L166.49-24.05ZM160.44-14.1L172.84-14.1Q172.64-16.15 170.77-17.57 168.89-19 166.54-19L166.54-19Q164.19-19 162.49-17.57 160.79-16.15 160.44-14.1L160.44-14.1ZM197.09-24.5L198.04-24.5 198.04-16.45 197.09-16.45Q197.09-16.8 196.94-17.25 196.79-17.7 196.54-17.75L196.54-17.75 196.19-17.75Q194.64-17.75 193.06-16.88 191.49-16 190.46-14.58 189.44-13.15 189.44-11.55L189.44-11.55 189.44-1.5Q189.44-1.25 189.81-1.1 190.19-0.95 190.54-0.95L190.54-0.95 190.54 0 182.14 0 182.14-0.95Q182.49-0.95 182.86-1.1 183.24-1.25 183.24-1.5L183.24-1.5 183.24-21.5Q183.24-21.75 182.86-21.9 182.49-22.05 182.14-22.05L182.14-22.05 182.14-23 189.44-23 189.44-20.85Q190.79-22.1 192.69-22.85 194.59-23.6 196.49-23.6L196.49-23.6 196.54-23.6 196.59-23.6Q196.84-23.6 196.96-23.9 197.09-24.2 197.09-24.5L197.09-24.5ZM212.49 1.05Q209.29 1.05 206.54-0.55 203.79-2.15 202.16-4.9 200.54-7.65 200.54-10.9L200.54-10.9Q200.54-14.75 202.16-17.68 203.79-20.6 206.54-22.18 209.29-23.75 212.59-23.75L212.59-23.75Q214.94-23.75 216.61-23.2 218.29-22.65 219.31-21.88 220.34-21.1 221.89-19.7L221.89-19.7Q221.99-19.6 222.14-19.6L222.14-19.6Q222.34-19.6 222.61-19.75 222.89-19.9 223.04-20.05L223.04-20.05 223.69-19.35 218.29-14.35 217.64-15.05Q217.89-15.25 218.06-15.63 218.24-16 218.09-16.2L218.09-16.2Q216.29-18.4 213.14-18.4L213.14-18.4Q210.29-18.4 208.36-16.5 206.44-14.6 206.44-11.55L206.44-11.55Q206.44-8.4 208.29-6.5 210.14-4.6 213.14-4.6L213.14-4.6Q214.64-4.6 215.59-4.98 216.54-5.35 217.74-6.4L217.74-6.4Q217.84-6.5 217.84-6.65L217.84-6.65Q217.84-6.95 217.49-7.3L217.49-7.3 218.09-8.05 223.49-3.55 222.89-2.85Q222.09-3.3 221.79-3L221.79-3Q219.94-0.95 217.91 0.05 215.89 1.05 212.49 1.05L212.49 1.05ZM238.38-24.05Q242.23-24.05 245.03-22.38 247.83-20.7 249.28-17.85 250.73-15 250.73-11.55L250.73-11.55Q250.73-10.5 250.58-9.45L250.58-9.45 232.28-9.45Q232.48-7.05 234.38-5.7 236.28-4.35 238.93-4.35L238.93-4.35Q240.73-4.35 241.96-4.85 243.18-5.35 244.13-6.35L244.13-6.35Q244.23-6.55 244.23-6.6L244.23-6.6Q244.23-6.8 244.08-7.03 243.93-7.25 243.78-7.35L243.78-7.35 244.38-8.1 249.93-3.75 249.38-3Q248.63-3.45 248.33-3.1L248.33-3.1Q244.83 1.1 238.93 1.1L238.93 1.1Q235.13 1.1 232.23-0.58 229.33-2.25 227.76-5.08 226.18-7.9 226.18-11.35L226.18-11.35Q226.18-15 227.73-17.9 229.28-20.8 232.06-22.43 234.83-24.05 238.38-24.05L238.38-24.05ZM232.33-14.1L244.73-14.1Q244.53-16.15 242.66-17.57 240.78-19 238.43-19L238.43-19Q236.08-19 234.38-17.57 232.68-16.15 232.33-14.1L232.33-14.1Z" fill="#d8ba0a" data-fill-palette-color="primary"></path><path d="M294.08-23L294.08-22.05Q293.73-22.05 293.35-21.9 292.98-21.75 292.98-21.5L292.98-21.5 292.98-1.5Q292.98-1.25 293.35-1.1 293.73-0.95 294.08-0.95L294.08-0.95 294.08 0 286.68 0 286.68-2.75Q283.53 0.65 278.73 0.65L278.73 0.65Q275.08 0.65 272.3-0.83 269.53-2.3 268-5.05 266.48-7.8 266.48-11.45L266.48-11.45Q266.48-15 268.15-17.78 269.83-20.55 272.63-22.08 275.43-23.6 278.73-23.6L278.73-23.6Q283.53-23.6 286.68-19.9L286.68-19.9 286.68-23 294.08-23ZM279.48-4.65Q281.53-4.65 283.15-5.58 284.78-6.5 285.68-8.03 286.58-9.55 286.58-11.3L286.58-11.3Q286.58-14.3 284.6-16.25 282.63-18.2 279.48-18.2L279.48-18.2Q276.43-18.2 274.45-16.3 272.48-14.4 272.48-11.45L272.48-11.45Q272.48-8.35 274.5-6.5 276.53-4.65 279.48-4.65L279.48-4.65ZM323.48-13.45L323.48-1.5Q323.48-1.25 323.85-1.1 324.23-0.95 324.63-0.95L324.63-0.95 324.63 0 315.82 0 315.82-0.95Q316.23-0.95 316.6-1.1 316.98-1.25 316.98-1.5L316.98-1.5 316.98-11.9Q316.98-14.45 315.73-16.28 314.48-18.1 311.98-18.1L311.98-18.1Q309.43-18.1 307.85-16.4 306.28-14.7 306.28-11.5L306.28-11.5 306.28-1.5Q306.28-1.25 306.65-1.1 307.03-0.95 307.43-0.95L307.43-0.95 307.43 0 298.68 0 298.68-0.95Q299.08-0.95 299.45-1.1 299.83-1.25 299.83-1.5L299.83-1.5 299.83-21.5Q299.83-21.75 299.45-21.9 299.08-22.05 298.73-22.05L298.73-22.05 298.73-23 306.28-23 306.28-20.95Q307.58-22.15 309.35-22.83 311.13-23.5 312.98-23.5L312.98-23.5Q316.18-23.5 318.55-22.15 320.93-20.8 322.2-18.53 323.48-16.25 323.48-13.45L323.48-13.45ZM354.67-36L354.67-1.5Q354.67-1.25 355.05-1.1 355.42-0.95 355.77-0.95L355.77-0.95 355.77 0 348.62 0 348.62-1.75Q345.62 0.7 341.47 0.7L341.47 0.7Q337.77 0.7 334.87-0.8 331.97-2.3 330.32-5.05 328.67-7.8 328.67-11.4L328.67-11.4Q328.67-15.05 330.35-17.88 332.02-20.7 334.95-22.28 337.87-23.85 341.47-23.85L341.47-23.85Q345.62-23.85 348.62-21.5L348.62-21.5 348.62-36Q348.62-36.25 348.27-36.4 347.92-36.55 347.57-36.55L347.57-36.55 347.57-37.5 355.72-37.5 355.72-36.55Q355.37-36.55 355.02-36.4 354.67-36.25 354.67-36L354.67-36ZM341.77-4.65Q343.72-4.65 345.35-5.55 346.97-6.45 347.9-7.98 348.82-9.5 348.82-11.2L348.82-11.2Q348.82-14.25 346.85-16.23 344.87-18.2 341.77-18.2L341.77-18.2Q338.67-18.2 336.7-16.28 334.72-14.35 334.72-11.3L334.72-11.3Q334.72-8.25 336.75-6.45 338.77-4.65 341.77-4.65L341.77-4.65Z" fill="#f4f3f0" data-fill-palette-color="secondary"></path><path d="M390.82 0.5Q385.47 0.5 380.97-2.02 376.47-4.55 373.87-9.03 371.27-13.5 371.27-19L371.27-19Q371.27-24.8 373.87-29.25 376.47-33.7 380.87-36.13 385.27-38.55 390.52-38.55L390.52-38.55Q395.57-38.55 399.04-36.77 402.52-35 405.62-31.8L405.62-31.8Q405.72-31.7 405.92-31.7L405.92-31.7Q406.22-31.7 406.97-32.15L406.97-32.15 407.57-31.4 400.67-25.95 400.07-26.7Q400.37-26.9 400.54-27.23 400.72-27.55 400.52-27.7L400.52-27.7Q398.42-29.75 396.14-30.83 393.87-31.9 390.62-31.9L390.62-31.9Q387.22-31.9 384.37-30.23 381.52-28.55 379.87-25.6 378.22-22.65 378.22-19L378.22-19Q378.22-15.5 379.97-12.63 381.72-9.75 384.62-8.1 387.52-6.45 390.82-6.45L390.82-6.45Q393.92-6.45 396.12-7.53 398.32-8.6 400.27-10.75L400.27-10.75 400.37-10.95Q400.37-11.2 400.14-11.53 399.92-11.85 399.67-12L399.67-12 400.32-12.7 407.77-6.45 407.17-5.7Q406.87-5.95 406.42-6.15 405.97-6.35 405.82-6.15L405.82-6.15Q402.67-2.75 399.22-1.13 395.77 0.5 390.82 0.5L390.82 0.5ZM422.27 0.6Q418.57 0.6 415.74-0.98 412.92-2.55 411.34-5.3 409.77-8.05 409.77-11.5L409.77-11.5Q409.77-14.9 411.34-17.7 412.92-20.5 415.77-22.13 418.62-23.75 422.27-23.75L422.27-23.75Q425.77-23.75 428.61-22.18 431.47-20.6 433.11-17.82 434.77-15.05 434.77-11.5L434.77-11.5Q434.77-8.4 433.29-5.63 431.82-2.85 428.97-1.13 426.11 0.6 422.27 0.6L422.27 0.6ZM422.27-5.15Q425.22-5.15 427.04-6.88 428.86-8.6 428.86-11.35L428.86-11.35Q428.86-14.2 427.04-16.05 425.22-17.9 422.27-17.9L422.27-17.9Q419.52-17.9 417.67-16.07 415.82-14.25 415.82-11.5L415.82-11.5Q415.82-8.6 417.67-6.88 419.52-5.15 422.27-5.15L422.27-5.15ZM463.61-13.45L463.61-1.5Q463.61-1.25 463.99-1.1 464.36-0.95 464.76-0.95L464.76-0.95 464.76 0 455.96 0 455.96-0.95Q456.36-0.95 456.74-1.1 457.11-1.25 457.11-1.5L457.11-1.5 457.11-11.9Q457.11-14.45 455.86-16.28 454.61-18.1 452.11-18.1L452.11-18.1Q449.56-18.1 447.99-16.4 446.41-14.7 446.41-11.5L446.41-11.5 446.41-1.5Q446.41-1.25 446.79-1.1 447.16-0.95 447.56-0.95L447.56-0.95 447.56 0 438.81 0 438.81-0.95Q439.21-0.95 439.59-1.1 439.96-1.25 439.96-1.5L439.96-1.5 439.96-21.5Q439.96-21.75 439.59-21.9 439.21-22.05 438.86-22.05L438.86-22.05 438.86-23 446.41-23 446.41-20.95Q447.71-22.15 449.49-22.83 451.26-23.5 453.11-23.5L453.11-23.5Q456.31-23.5 458.69-22.15 461.06-20.8 462.34-18.53 463.61-16.25 463.61-13.45L463.61-13.45ZM494.16-13.45L494.16-1.5Q494.16-1.25 494.54-1.1 494.91-0.95 495.31-0.95L495.31-0.95 495.31 0 486.51 0 486.51-0.95Q486.91-0.95 487.29-1.1 487.66-1.25 487.66-1.5L487.66-1.5 487.66-11.9Q487.66-14.45 486.41-16.28 485.16-18.1 482.66-18.1L482.66-18.1Q480.11-18.1 478.54-16.4 476.96-14.7 476.96-11.5L476.96-11.5 476.96-1.5Q476.96-1.25 477.34-1.1 477.71-0.95 478.11-0.95L478.11-0.95 478.11 0 469.36 0 469.36-0.95Q469.76-0.95 470.14-1.1 470.51-1.25 470.51-1.5L470.51-1.5 470.51-21.5Q470.51-21.75 470.14-21.9 469.76-22.05 469.41-22.05L469.41-22.05 469.41-23 476.96-23 476.96-20.95Q478.26-22.15 480.04-22.83 481.81-23.5 483.66-23.5L483.66-23.5Q486.86-23.5 489.24-22.15 491.61-20.8 492.89-18.53 494.16-16.25 494.16-13.45L494.16-13.45ZM511.56-24.05Q515.41-24.05 518.21-22.38 521.01-20.7 522.46-17.85 523.91-15 523.91-11.55L523.91-11.55Q523.91-10.5 523.76-9.45L523.76-9.45 505.46-9.45Q505.66-7.05 507.56-5.7 509.46-4.35 512.11-4.35L512.11-4.35Q513.91-4.35 515.13-4.85 516.36-5.35 517.31-6.35L517.31-6.35Q517.41-6.55 517.41-6.6L517.41-6.6Q517.41-6.8 517.26-7.03 517.11-7.25 516.96-7.35L516.96-7.35 517.56-8.1 523.11-3.75 522.56-3Q521.81-3.45 521.51-3.1L521.51-3.1Q518.01 1.1 512.11 1.1L512.11 1.1Q508.31 1.1 505.41-0.58 502.51-2.25 500.93-5.08 499.36-7.9 499.36-11.35L499.36-11.35Q499.36-15 500.91-17.9 502.46-20.8 505.23-22.43 508.01-24.05 511.56-24.05L511.56-24.05ZM505.51-14.1L517.91-14.1Q517.71-16.15 515.83-17.57 513.96-19 511.61-19L511.61-19Q509.26-19 507.56-17.57 505.86-16.15 505.51-14.1L505.51-14.1ZM539.11 1.05Q535.91 1.05 533.16-0.55 530.41-2.15 528.78-4.9 527.16-7.65 527.16-10.9L527.16-10.9Q527.16-14.75 528.78-17.68 530.41-20.6 533.16-22.18 535.91-23.75 539.21-23.75L539.21-23.75Q541.56-23.75 543.23-23.2 544.91-22.65 545.93-21.88 546.96-21.1 548.51-19.7L548.51-19.7Q548.61-19.6 548.76-19.6L548.76-19.6Q548.96-19.6 549.23-19.75 549.51-19.9 549.66-20.05L549.66-20.05 550.31-19.35 544.91-14.35 544.26-15.05Q544.51-15.25 544.68-15.63 544.86-16 544.71-16.2L544.71-16.2Q542.91-18.4 539.76-18.4L539.76-18.4Q536.91-18.4 534.98-16.5 533.06-14.6 533.06-11.55L533.06-11.55Q533.06-8.4 534.91-6.5 536.76-4.6 539.76-4.6L539.76-4.6Q541.26-4.6 542.21-4.98 543.16-5.35 544.36-6.4L544.36-6.4Q544.46-6.5 544.46-6.65L544.46-6.65Q544.46-6.95 544.11-7.3L544.11-7.3 544.71-8.05 550.11-3.55 549.51-2.85Q548.71-3.3 548.41-3L548.41-3Q546.56-0.95 544.53 0.05 542.51 1.05 539.11 1.05L539.11 1.05ZM565.8-24L566.75-24 566.75-16.4 565.8-16.4Q565.8-16.75 565.65-17.07 565.5-17.4 565.25-17.4L565.25-17.4 562-17.4 562-1.5Q562-1.25 562.35-1.1 562.7-0.95 563.05-0.95L563.05-0.95 563.05 0 554.9 0 554.9-0.95Q555.25-0.95 555.6-1.1 555.95-1.25 555.95-1.5L555.95-1.5 555.95-17.4 553.55-17.4Q553.3-17.4 553.15-17.07 553-16.75 553-16.4L553-16.4 552.05-16.4 552.05-24 553-24Q553-23.65 553.15-23.33 553.3-23 553.55-23L553.55-23 555.95-23 555.95-28.85Q555.95-29.1 555.6-29.25 555.25-29.4 554.9-29.4L554.9-29.4 554.9-30.35 563.05-30.35 563.05-29.4Q562.7-29.4 562.35-29.25 562-29.1 562-28.85L562-28.85 562-23 565.25-23Q565.5-23 565.65-23.33 565.8-23.65 565.8-24L565.8-24Z" fill="#1e72e9" data-fill-palette-color="accent"></path></g></svg></g></svg></g><g transform="matrix(1,0,0,1,163.310208,34.04988355518707)"><svg viewBox="0 0 232.209792 11.400103825658372" height="11.400103825658372" width="232.209792"><g transform="matrix(1,0,0,1,0,0)"><svg width="232.209792" viewBox="1.73 -37.16 1010.41 49.61" height="11.400103825658372" data-palette-color="#f4f3f0"><path d="M1.73 0L1.73-2.69Q4.1-2.69 4.79-3.13 5.47-3.56 5.66-4.06 5.86-4.57 5.86-5.3L5.86-5.3 5.86-31.27Q5.86-32.79 4.96-33.36 4.05-33.94 1.76-33.94L1.76-33.94 1.76-36.62 28.32-36.62 29.27-27.76 25.73-27.73 25.07-30.49Q24.58-32.47 24.07-32.98L24.07-32.98Q23.17-33.89 21.02-33.89L21.02-33.89 11.35-33.89 11.35-19.68 16.09-19.68Q18.85-19.68 19.47-20.04 20.09-20.41 20.32-21.09 20.56-21.78 20.56-23.07L20.56-23.07 23.73-23.07 23.73-13.62 20.56-13.62Q20.56-15.89 19.67-16.44 18.77-16.99 16.09-16.99L16.09-16.99 11.35-16.99 11.35-2.69 21.73-2.69Q24.56-2.69 25.49-4.59L25.49-4.59Q25.78-5.18 26.07-5.81L26.07-5.81 27.17-8.81 30.71-8.81 29.76 0 1.73 0ZM66.97-25.22L66.97-25.22Q74.14-25.22 74.14-14.75L74.14-14.75 74.14-5.3Q74.14-3.69 74.61-3.19 75.07-2.69 77.15-2.69L77.15-2.69 77.15 0 65.6 0 65.6-2.69Q67.82-2.69 68.27-3.14 68.72-3.59 68.8-4.08 68.87-4.57 68.87-5.3L68.87-5.3 68.87-14.43Q68.87-17.85 68.33-19.1 67.8-20.36 66.94-20.97 66.09-21.58 65.01-21.58L65.01-21.58Q63.06-21.58 61.28-20.8 59.49-20.02 58.44-18.75L58.44-18.75Q58.79-16.97 58.79-14.75L58.79-14.75 58.79-5.3Q58.79-3.69 59.25-3.19 59.71-2.69 61.79-2.69L61.79-2.69 61.79 0 50.24 0 50.24-2.69Q52.46-2.69 52.91-3.14 53.37-3.59 53.44-4.08 53.51-4.57 53.51-5.3L53.51-5.3 53.51-14.43Q53.51-17.85 52.98-19.1 52.44-20.36 51.58-20.97 50.73-21.58 49.66-21.58L49.66-21.58Q47.8-21.58 46.09-20.87 44.38-20.17 43.28-18.99L43.28-18.99 43.28-5.25Q43.28-3.71 43.77-3.32L43.77-3.32Q44.65-2.69 46.97-2.69L46.97-2.69 46.97 0 34.59 0 34.59-2.69Q36.69-2.69 37.23-3.11 37.77-3.54 37.89-4.03 38.01-4.52 38.01-5.25L38.01-5.25 38.01-18.55Q38.01-20.31 37.71-20.85 37.4-21.39 36.03-21.39L36.03-21.39 34.54-21.39 34.54-24.07Q36.84-24.07 38.17-24.43 39.5-24.78 40.06-24.94 40.62-25.1 41.28-25.1L41.28-25.1Q42.53-25.1 42.91-24.37 43.28-23.63 43.28-21.97L43.28-21.97 43.28-21.92Q45.77-24.1 49.34-24.95L49.34-24.95Q50.51-25.22 51.61-25.22L51.61-25.22Q55.98-25.22 57.69-21.31L57.69-21.31Q60.42-23.85 64.28-24.85L64.28-24.85Q65.65-25.22 66.97-25.22ZM95.72 0.49L95.72 0.49Q91.72 0.49 88.89-2.25L88.89-2.25 88.89 6.47Q88.89 8.35 89.7 8.81 90.52 9.28 93.84 9.28L93.84 9.28 93.84 11.96 80.2 11.96 80.2 9.28Q82.29 9.28 82.83 8.85 83.37 8.42 83.49 7.93 83.61 7.45 83.61 6.71L83.61 6.71 83.61-18.68Q83.61-20.43 83.31-20.97 83-21.51 81.64-21.51L81.64-21.51 79.9-21.51 79.9-24.19Q82.32-24.19 83.69-24.55 85.05-24.9 85.64-25.06 86.23-25.22 86.88-25.22L86.88-25.22Q88.18-25.22 88.58-24.48 88.98-23.73 88.98-22.09L88.98-22.09 88.98-22.02Q91.72-25.24 96.44-25.24 101.17-25.24 104.07-22.06 106.98-18.87 106.98-12.82 106.98-6.76 103.96-3.14 100.95 0.49 95.72 0.49ZM88.76-12.11Q88.76-7.62 90.5-5.03 92.23-2.44 95.14-2.44L95.14-2.44Q98.02-2.44 99.65-5.09 101.29-7.74 101.29-12.16L101.29-12.16Q101.29-19.21 97.87-21.48L97.87-21.48Q96.65-22.31 94.99-22.31 93.33-22.31 92.18-21.53 91.04-20.75 90.28-19.38L90.28-19.38Q88.76-16.6 88.76-12.11ZM111.3-12.5L111.3-12.5Q111.3-15.43 112.21-17.91 113.13-20.39 114.76-22.02L114.76-22.02Q117.99-25.24 123.33-25.24L123.33-25.24Q128.73-25.24 132.04-22.01 135.34-18.77 135.34-12.83 135.34-6.88 132.29-3.2 129.24 0.49 123.33 0.49L123.33 0.49Q117.42 0.49 114.36-3.09 111.3-6.67 111.3-12.5ZM123.33-2.44L123.33-2.44Q126.16-2.44 127.93-5.03 129.7-7.62 129.7-12.3L129.7-12.3Q129.7-19.85 125.9-21.73L125.9-21.73Q124.72-22.31 123.33-22.31L123.33-22.31Q118.82-22.31 117.45-16.85L117.45-16.85Q116.96-14.97 116.96-12.45L116.96-12.45Q116.96-7.62 118.73-5.03 120.5-2.44 123.33-2.44ZM148.33 0L140.76-19.46Q140.18-20.95 139.54-21.51 138.91-22.07 137.27-22.07L137.27-22.07 137.27-24.76 149.6-24.76 149.6-22.07Q147.04-22.07 146.51-21.62 145.99-21.17 146-20.68 146.01-20.19 146.28-19.46L146.28-19.46 151.02-6.18 157.31-24.76 160.85-24.76 167.01-5.64 171.65-19.46Q172.16-20.87 171.3-21.47 170.45-22.07 167.71-22.07L167.71-22.07 167.71-24.76 178.85-24.76 178.85-22.07Q177.24-22.07 176.39-21.44 175.55-20.8 175.09-19.46L175.09-19.46 168.32 0 164.2 0 158.12-16.72 152.46 0 148.33 0ZM203.48-11.25L203.48-11.25 186.54-11.25Q186.54-7.06 188.53-4.76 190.51-2.47 193.44-2.47L193.44-2.47Q197.38-2.47 199.08-5.71L199.08-5.71 202.72-5.74Q202.16-3.13 199.51-1.32 196.86 0.49 192.37 0.49 187.88 0.49 184.61-2.29L184.61-2.29Q180.7-5.64 180.7-11.72 180.7-17.8 183.81-21.52 186.93-25.24 192.74-25.24L192.74-25.24Q200.38-25.24 202.62-19.09L202.62-19.09Q203.53-16.63 203.53-14.43 203.53-12.23 203.48-11.25ZM197.84-14.92L197.84-14.92Q197.84-22.39 192.76-22.39L192.76-22.39Q189.9-22.39 188.31-20.17 186.71-17.94 186.56-14.01L186.56-14.01 197.81-14.01Q197.84-14.48 197.84-14.92ZM207.75 0L207.75-2.69Q209.85-2.69 210.39-3.11 210.92-3.54 211.03-4.03 211.14-4.52 211.14-5.25L211.14-5.25 211.14-18.7Q211.14-20.46 210.84-21 210.53-21.53 209.19-21.53L209.19-21.53 207.7-21.53 207.7-24.22Q210.02-24.22 211.3-24.57 212.58-24.93 213.13-25.09 213.68-25.24 214.32-25.24L214.32-25.24Q215.56-25.24 215.99-24.51 216.42-23.78 216.42-22.12L216.42-22.12 216.42-21.63Q218.52-24.1 221.18-24.95L221.18-24.95Q222.13-25.24 223.08-25.24L223.08-25.24Q224.91-25.24 225.92-24.19 226.94-23.14 226.94-21.61 226.94-20.07 225.96-19.09 224.99-18.12 223.59-18.12L223.59-18.12Q222.23-18.12 221.34-19.09 220.44-20.07 220.54-21.53L220.54-21.53Q219.54-21.39 218.41-20.62 217.27-19.85 216.42-18.53L216.42-18.53 216.42-5.47Q216.42-4.54 216.57-3.99 216.73-3.44 217.43-3.06 218.12-2.69 221.62-2.69L221.62-2.69 221.62 0 207.75 0ZM235.87-29.76L235.87-29.76Q234.28-29.76 233.17-30.82 232.06-31.88 232.06-33.42L232.06-33.42Q232.06-34.99 233.19-36.07 234.31-37.16 235.87-37.16L235.87-37.16Q237.43-37.16 238.56-36.07 239.68-34.99 239.68-33.42L239.68-33.42Q239.68-31.88 238.57-30.82 237.46-29.76 235.87-29.76ZM229.65 0L229.65-2.69Q231.92-2.69 232.49-3.11 233.06-3.54 233.19-4.03 233.31-4.52 233.31-5.25L233.31-5.25 233.31-18.7Q233.31-20.46 233-21 232.7-21.53 231.35-21.53L231.35-21.53 229.6-21.53 229.6-24.22Q231.99-24.22 233.36-24.57 234.72-24.93 235.29-25.09 235.85-25.24 236.51-25.24L236.51-25.24Q237.78-25.24 238.18-24.5 238.58-23.75 238.58-22.12L238.58-22.12 238.58-5.25Q238.58-3.71 239.07-3.32L239.07-3.32Q239.9-2.69 242.22-2.69L242.22-2.69 242.22 0 229.65 0ZM261.14-21.58L261.14-21.58Q257.13-21.58 254.64-19.09L254.64-19.09 254.64-5.25Q254.64-3.74 255.13-3.34L255.13-3.34Q255.99-2.69 258.35-2.69L258.35-2.69 258.35 0 245.95 0 245.95-2.69Q248.05-2.69 248.59-3.11 249.13-3.54 249.25-4.03 249.37-4.52 249.37-5.25L249.37-5.25 249.37-18.55Q249.37-20.31 249.06-20.85 248.76-21.39 247.39-21.39L247.39-21.39 245.9-21.39 245.9-24.07Q248.2-24.07 249.5-24.43 250.81-24.78 251.36-24.94 251.91-25.1 252.54-25.1L252.54-25.1Q253.84-25.1 254.24-24.35 254.64-23.61 254.64-21.97L254.64-21.97Q257.26-24.17 260.7-24.95L260.7-24.95Q261.85-25.22 262.94-25.22L262.94-25.22Q270.85-25.22 270.85-14.75L270.85-14.75 270.85-5.3Q270.85-3.69 271.32-3.19 271.78-2.69 273.86-2.69L273.86-2.69 273.86 0 262.31 0 262.31-2.69Q264.53-2.69 264.98-3.14 265.43-3.59 265.51-4.08 265.58-4.57 265.58-5.3L265.58-5.3 265.58-14.43Q265.58-17.82 264.95-19.09L264.95-19.09Q263.7-21.58 261.14-21.58ZM295.44-23.34L295.44-23.34Q297.61-25.9 301.08-25.9L301.08-25.9Q302.25-25.9 303.14-25.04 304.03-24.17 304.03-22.89 304.03-21.61 303.26-20.86 302.49-20.12 301.42-20.12 300.34-20.12 299.6-20.73 298.85-21.34 298.78-22.61L298.78-22.61Q297.9-22.27 297.17-21.58L297.17-21.58Q298.63-19.46 298.63-16.78 298.63-14.11 297.82-12.44 297-10.77 295.6-9.58 294.19-8.4 292.34-7.76 290.48-7.13 289-7.13 287.53-7.13 286.77-7.2L286.77-7.2Q285.01-6.81 284.4-5.71L284.4-5.71Q284.23-5.44 284.23-5.1L284.23-5.1Q284.23-4.37 285.55-4.05 286.87-3.74 289.96-3.48 293.04-3.22 295.06-2.87 297.07-2.51 298.54-1.76L298.54-1.76Q301.64-0.12 301.64 3.81 301.64 7.74 297.8 10.1 293.97 12.45 288.43 12.45L288.43 12.45Q279.74 12.45 277.57 8.03L277.57 8.03Q276.91 6.69 276.91 5.08L276.91 5.08Q276.91 0.93 281.96-1.66L281.96-1.66Q280.23-2.69 280.23-4.83 280.23-6.98 282.94-8.2L282.94-8.2Q280.64-9.08 279.32-11.34 278-13.6 278-15.94L278-15.94Q278-20.34 281.17-22.79 284.33-25.24 288.6-25.24 292.87-25.24 295.44-23.34ZM288.43-9.94L288.43-9.94Q291.65-9.94 292.9-13.35L292.9-13.35Q293.34-14.53 293.34-16.26L293.34-16.26Q293.34-19.48 291.92-21.02 290.5-22.56 288.43-22.56L288.43-22.56Q285.04-22.56 283.77-19.12L283.77-19.12Q283.33-17.87 283.33-16.16L283.33-16.16Q283.33-13.04 284.85-11.49 286.38-9.94 288.43-9.94ZM284.57-0.12L284.57-0.12Q282.16 1.17 282.16 4.27L282.16 4.27Q282.16 6.84 284.21 8.18 286.26 9.52 289.6 9.52L289.6 9.52Q294.85 9.52 296.51 6.74L296.51 6.74Q297.05 5.88 297.05 4.81L297.05 4.81Q297.05 1.27 290.99 0.71L290.99 0.71Q289.09 0.51 287.43 0.37 285.77 0.22 284.57-0.12ZM322.29 0L322.29-2.69Q324.87-2.69 325.51-3.14 326.14-3.59 326.27-4.1 326.39-4.61 326.39-5.35L326.39-5.35 326.39-31.27Q326.39-32.79 325.49-33.36 324.58-33.94 322.29-33.94L322.29-33.94 322.29-36.62 348.36-36.62 349.31-27.76 345.77-27.73 345.11-30.49Q344.63-32.47 344.11-32.98L344.11-32.98Q343.21-33.89 341.06-33.89L341.06-33.89 331.88-33.89 331.88-19.68 336.37-19.68Q339.13-19.68 339.76-20.04 340.38-20.41 340.61-21.09 340.84-21.78 340.84-23.07L340.84-23.07 344.02-23.07 344.02-13.62 340.84-13.62Q340.84-15.89 339.95-16.44 339.06-16.99 336.37-16.99L336.37-16.99 331.88-16.99 331.88-6.57Q331.88-5.32 332.06-4.57 332.25-3.81 333.29-3.25 334.32-2.69 339.55-2.69L339.55-2.69 339.55 0 322.29 0ZM371.67-4L371.67-4Q368.62 0.49 363.52 0.49L363.52 0.49Q359.83 0.49 357.78-1.78 355.73-4.05 355.73-8.57L355.73-8.57 355.73-18.7Q355.73-20.46 355.43-21 355.12-21.53 353.78-21.53L353.78-21.53 353.14-21.53 353.14-24.22Q355.39-24.22 356.4-24.57 357.42-24.93 357.86-25.09 358.3-25.24 358.93-25.24L358.93-25.24Q360.18-25.24 360.59-24.48 361.01-23.71 361.01-22.02L361.01-22.02 361.01-8.4Q361.01-5.71 361.57-4.74L361.57-4.74Q362.64-2.86 365.25-2.86L365.25-2.86Q367.01-2.86 368.72-4.25 370.43-5.64 371.14-7.5L371.14-7.5 371.14-18.7Q371.09-20.51 370.8-21.02 370.5-21.53 369.16-21.53L369.16-21.53 367.77-21.53 367.77-24.22Q370.09-24.22 371.34-24.57 372.6-24.93 373.14-25.09 373.68-25.24 374.31-25.24L374.31-25.24Q375.56-25.24 375.98-24.51 376.41-23.78 376.41-22.12L376.41-22.12 376.41-6.49Q376.41-4.13 376.63-3.56L376.63-3.56Q377.02-2.49 378.58-2.49L378.58-2.49Q379.41-2.49 380-2.76L380-2.76 380-0.39Q378.83 0.49 376.8 0.49L376.8 0.49Q372.55 0.49 371.67-4ZM392.81 0.49L392.81 0.49Q385.12 0.49 385.12-8.06L385.12-8.06 385.12-20.26Q385.12-21.22 384.89-21.52 384.66-21.83 383.9-21.83L383.9-21.83 381.9-21.83 381.9-24.76 382.8-24.76Q384.66-24.76 385.53-25.93 386.39-27.1 386.47-29.79L386.47-29.79 386.49-31.96 390.4-31.96 390.4-24.76 397.89-24.76 397.89-21.83 390.4-21.83 390.4-8.13Q390.4-3.59 392.5-2.71L392.5-2.71Q393.08-2.47 393.67-2.47L393.67-2.47Q396.23-2.47 397.01-6.69L397.01-6.69 399.85-6.69Q399.6-1.68 395.67-0.05L395.67-0.05Q394.4 0.49 392.81 0.49ZM421.16-4L421.16-4Q418.1 0.49 413 0.49L413 0.49Q409.32 0.49 407.26-1.78 405.21-4.05 405.21-8.57L405.21-8.57 405.21-18.7Q405.21-20.46 404.91-21 404.6-21.53 403.26-21.53L403.26-21.53 402.63-21.53 402.63-24.22Q404.87-24.22 405.89-24.57 406.9-24.93 407.34-25.09 407.78-25.24 408.41-25.24L408.41-25.24Q409.66-25.24 410.07-24.48 410.49-23.71 410.49-22.02L410.49-22.02 410.49-8.4Q410.49-5.71 411.05-4.74L411.05-4.74Q412.12-2.86 414.74-2.86L414.74-2.86Q416.49-2.86 418.2-4.25 419.91-5.64 420.62-7.5L420.62-7.5 420.62-18.7Q420.57-20.51 420.28-21.02 419.98-21.53 418.64-21.53L418.64-21.53 417.25-21.53 417.25-24.22Q419.57-24.22 420.83-24.57 422.08-24.93 422.62-25.09 423.16-25.24 423.79-25.24L423.79-25.24Q425.04-25.24 425.47-24.51 425.89-23.78 425.89-22.12L425.89-22.12 425.89-6.49Q425.89-4.13 426.11-3.56L426.11-3.56Q426.5-2.49 428.07-2.49L428.07-2.49Q428.9-2.49 429.48-2.76L429.48-2.76 429.48-0.39Q428.31 0.49 426.28 0.49L426.28 0.49Q422.04 0.49 421.16-4ZM432.12 0L432.12-2.69Q434.22-2.69 434.75-3.11 435.29-3.54 435.4-4.03 435.51-4.52 435.51-5.25L435.51-5.25 435.51-18.7Q435.51-20.46 435.2-21 434.9-21.53 433.56-21.53L433.56-21.53 432.07-21.53 432.07-24.22Q434.39-24.22 435.67-24.57 436.95-24.93 437.5-25.09 438.05-25.24 438.68-25.24L438.68-25.24Q439.93-25.24 440.36-24.51 440.78-23.78 440.78-22.12L440.78-22.12 440.78-21.63Q442.88-24.1 445.54-24.95L445.54-24.95Q446.5-25.24 447.45-25.24L447.45-25.24Q449.28-25.24 450.29-24.19 451.31-23.14 451.31-21.61 451.31-20.07 450.33-19.09 449.35-18.12 447.96-18.12L447.96-18.12Q446.59-18.12 445.7-19.09 444.81-20.07 444.91-21.53L444.91-21.53Q443.91-21.39 442.77-20.62 441.64-19.85 440.78-18.53L440.78-18.53 440.78-5.47Q440.78-4.54 440.94-3.99 441.1-3.44 441.8-3.06 442.49-2.69 445.98-2.69L445.98-2.69 445.98 0 432.12 0ZM476.99-11.25L476.99-11.25 460.04-11.25Q460.04-7.06 462.03-4.76 464.02-2.47 466.95-2.47L466.95-2.47Q470.88-2.47 472.59-5.71L472.59-5.71 476.23-5.74Q475.67-3.13 473.02-1.32 470.37 0.49 465.88 0.49 461.39 0.49 458.11-2.29L458.11-2.29Q454.21-5.64 454.21-11.72 454.21-17.8 457.32-21.52 460.43-25.24 466.24-25.24L466.24-25.24Q473.89-25.24 476.13-19.09L476.13-19.09Q477.04-16.63 477.04-14.43 477.04-12.23 476.99-11.25ZM471.35-14.92L471.35-14.92Q471.35-22.39 466.27-22.39L466.27-22.39Q463.41-22.39 461.81-20.17 460.21-17.94 460.07-14.01L460.07-14.01 471.32-14.01Q471.35-14.48 471.35-14.92ZM494.83-21.51L494.83-21.51Q493.59-22.75 490.75-22.75 487.92-22.75 486.92-20.7L486.92-20.7Q486.65-20.12 486.65-19.37 486.65-18.63 487.24-17.93 487.82-17.24 488.75-16.61 489.68-15.99 490.84-15.41 492-14.82 493.24-14.14 494.49-13.45 495.88-12.7L495.88-12.7Q500.98-9.91 500.98-6.53 500.98-3.15 498.35-1.33 495.71 0.49 491.35 0.49 486.99 0.49 484.16-1.07 481.33-2.64 481.33-5.1L481.33-5.1Q481.33-6.45 482.22-7.37 483.11-8.3 484.49-8.3 485.87-8.3 486.77-7.43 487.68-6.57 487.68-5.37 487.68-4.17 486.85-3.34L486.85-3.34Q488.8-2.22 491.69-2.22 494.59-2.22 495.76-3.56L495.76-3.56Q496.25-4.1 496.25-4.96L496.25-4.96Q496.25-6.98 491.75-9.18L491.75-9.18Q488.63-10.72 487.07-11.6L487.07-11.6Q482.06-14.43 482.06-18.43L482.06-18.43Q482.06-21.51 484.61-23.36 487.16-25.22 491.12-25.22 495.07-25.22 497.77-23.74 500.47-22.27 500.47-19.92L500.47-19.92Q500.47-18.55 499.81-17.9L499.81-17.9Q498.66-16.75 497.61-16.75L497.61-16.75Q495.9-16.75 495.04-17.61 494.17-18.48 494.17-19.6 494.17-20.73 494.83-21.51ZM507.3-4.15Q507.3-5.66 508.59-6.81 509.87-7.96 511.14-7.96L511.14-7.96Q513.41-7.96 514.64-6.58 515.87-5.2 515.87-2.98L515.87-2.98Q515.87 1.56 513.07 5.15 510.26 8.74 505.94 9.45L505.94 9.45 504.76 7.76Q506.89 7.06 508.3 5.93L508.3 5.93Q510.89 3.86 510.89 1.68L510.89 1.68Q510.89 0.34 509.79-0.42L509.79-0.42Q509.26-0.81 508.79-1.14 508.33-1.46 508.01-1.86L508.01-1.86Q507.3-2.64 507.3-4.15ZM555.86-2.69L555.86-2.69Q563.55-2.69 565.57-9.77L565.57-9.77 569.09-9.77Q569.09-7.86 568.07-6.02 567.04-4.17 565.18-2.73L565.18-2.73Q561.08 0.49 554.64 0.49 548.19 0.49 543.6-3.81L543.6-3.81Q538.28-8.76 538.28-18.31L538.28-18.31Q538.28-25.93 542.38-31.15L542.38-31.15Q545.29-34.89 550.12-36.35L550.12-36.35Q552.61-37.11 555.59-37.11L555.59-37.11Q561.47-37.11 565.26-34.41 569.04-31.71 569.04-27.64L569.04-27.64Q569.04-24.58 566.65-23.54L566.65-23.54Q565.94-23.22 565.11-23.22L565.11-23.22Q562.55-23.22 561.67-25.39L561.67-25.39Q561.4-26.07 561.4-27.01 561.4-27.95 561.94-28.87 562.47-29.79 563.35-30.27L563.35-30.27Q561.38-34.06 556.27-34.06 551.17-34.06 547.97-30.19 544.77-26.32 544.77-18.57 544.77-10.82 548.02-6.75 551.27-2.69 555.86-2.69ZM574.97-12.5L574.97-12.5Q574.97-15.43 575.89-17.91 576.8-20.39 578.44-22.02L578.44-22.02Q581.66-25.24 587.01-25.24L587.01-25.24Q592.4-25.24 595.71-22.01 599.02-18.77 599.02-12.83 599.02-6.88 595.97-3.2 592.92 0.49 587.01 0.49L587.01 0.49Q581.1 0.49 578.04-3.09 574.97-6.67 574.97-12.5ZM587.01-2.44L587.01-2.44Q589.84-2.44 591.61-5.03 593.38-7.62 593.38-12.3L593.38-12.3Q593.38-19.85 589.57-21.73L589.57-21.73Q588.4-22.31 587.01-22.31L587.01-22.31Q582.49-22.31 581.12-16.85L581.12-16.85Q580.64-14.97 580.64-12.45L580.64-12.45Q580.64-7.62 582.41-5.03 584.18-2.44 587.01-2.44ZM618.35-21.58L618.35-21.58Q614.35-21.58 611.86-19.09L611.86-19.09 611.86-5.25Q611.86-3.74 612.35-3.34L612.35-3.34Q613.2-2.69 615.57-2.69L615.57-2.69 615.57 0 603.17 0 603.17-2.69Q605.27-2.69 605.8-3.11 606.34-3.54 606.46-4.03 606.59-4.52 606.59-5.25L606.59-5.25 606.59-18.55Q606.59-20.31 606.28-20.85 605.98-21.39 604.61-21.39L604.61-21.39 603.12-21.39 603.12-24.07Q605.41-24.07 606.72-24.43 608.03-24.78 608.58-24.94 609.12-25.1 609.76-25.1L609.76-25.1Q611.05-25.1 611.46-24.35 611.86-23.61 611.86-21.97L611.86-21.97Q614.47-24.17 617.91-24.95L617.91-24.95Q619.06-25.22 620.16-25.22L620.16-25.22Q628.07-25.22 628.07-14.75L628.07-14.75 628.07-5.3Q628.07-3.69 628.53-3.19 629-2.69 631.07-2.69L631.07-2.69 631.07 0 619.53 0 619.53-2.69Q621.75-2.69 622.2-3.14 622.65-3.59 622.72-4.08 622.8-4.57 622.8-5.3L622.8-5.3 622.8-14.43Q622.8-17.82 622.16-19.09L622.16-19.09Q620.92-21.58 618.35-21.58ZM649.63-21.58L649.63-21.58Q645.62-21.58 643.13-19.09L643.13-19.09 643.13-5.25Q643.13-3.74 643.62-3.34L643.62-3.34Q644.47-2.69 646.84-2.69L646.84-2.69 646.84 0 634.44 0 634.44-2.69Q636.54-2.69 637.08-3.11 637.61-3.54 637.74-4.03 637.86-4.52 637.86-5.25L637.86-5.25 637.86-18.55Q637.86-20.31 637.55-20.85 637.25-21.39 635.88-21.39L635.88-21.39 634.39-21.39 634.39-24.07Q636.69-24.07 637.99-24.43 639.3-24.78 639.85-24.94 640.4-25.1 641.03-25.1L641.03-25.1Q642.33-25.1 642.73-24.35 643.13-23.61 643.13-21.97L643.13-21.97Q645.74-24.17 649.19-24.95L649.19-24.95Q650.33-25.22 651.43-25.22L651.43-25.22Q659.34-25.22 659.34-14.75L659.34-14.75 659.34-5.3Q659.34-3.69 659.81-3.19 660.27-2.69 662.34-2.69L662.34-2.69 662.34 0 650.8 0 650.8-2.69Q653.02-2.69 653.47-3.14 653.92-3.59 654-4.08 654.07-4.57 654.07-5.3L654.07-5.3 654.07-14.43Q654.07-17.82 653.43-19.09L653.43-19.09Q652.19-21.58 649.63-21.58ZM688.73-11.25L688.73-11.25 671.79-11.25Q671.79-7.06 673.78-4.76 675.77-2.47 678.7-2.47L678.7-2.47Q682.63-2.47 684.34-5.71L684.34-5.71 687.98-5.74Q687.42-3.13 684.77-1.32 682.12 0.49 677.63 0.49 673.13 0.49 669.86-2.29L669.86-2.29Q665.96-5.64 665.96-11.72 665.96-17.8 669.07-21.52 672.18-25.24 677.99-25.24L677.99-25.24Q685.63-25.24 687.88-19.09L687.88-19.09Q688.78-16.63 688.78-14.43 688.78-12.23 688.73-11.25ZM683.09-14.92L683.09-14.92Q683.09-22.39 678.02-22.39L678.02-22.39Q675.16-22.39 673.56-20.17 671.96-17.94 671.81-14.01L671.81-14.01 683.07-14.01Q683.09-14.48 683.09-14.92ZM709.7-20.73L709.7-20.73Q708.29-22.44 705.75-22.44L705.75-22.44Q700.99-22.44 699.55-17.02L699.55-17.02Q699.06-15.11 699.06-12.45L699.06-12.45Q699.06-7.5 700.96-4.98 702.87-2.47 705.72-2.47L705.72-2.47Q707.82-2.47 709.29-3.69 710.75-4.91 711.31-7.18L711.31-7.18 714.66-7.18Q714.66-4.15 711.99-1.83 709.31 0.49 704.73 0.49 700.16 0.49 696.96-2.37L696.96-2.37Q693.2-5.71 693.2-12.21L693.2-12.21Q693.2-17.5 696.34-21.37 699.47-25.24 705.55-25.24L705.55-25.24Q709.53-25.24 712.19-23.32 714.85-21.39 714.85-18.33L714.85-18.33Q714.85-16.85 713.89-15.83 712.93-14.82 711.44-14.82L711.44-14.82Q709.31-14.82 708.51-16.8L708.51-16.8Q708.26-17.38 708.26-18.09L708.26-18.09Q708.26-19.78 709.7-20.73ZM728.89 0.49L728.89 0.49Q721.2 0.49 721.2-8.06L721.2-8.06 721.2-20.26Q721.2-21.22 720.97-21.52 720.74-21.83 719.98-21.83L719.98-21.83 717.98-21.83 717.98-24.76 718.88-24.76Q720.74-24.76 721.6-25.93 722.47-27.1 722.54-29.79L722.54-29.79 722.57-31.96 726.47-31.96 726.47-24.76 733.97-24.76 733.97-21.83 726.47-21.83 726.47-8.13Q726.47-3.59 728.57-2.71L728.57-2.71Q729.16-2.47 729.74-2.47L729.74-2.47Q732.31-2.47 733.09-6.69L733.09-6.69 735.92-6.69Q735.68-1.68 731.75-0.05L731.75-0.05Q730.48 0.49 728.89 0.49ZM745.37-29.76L745.37-29.76Q743.78-29.76 742.67-30.82 741.56-31.88 741.56-33.42L741.56-33.42Q741.56-34.99 742.68-36.07 743.8-37.16 745.37-37.16L745.37-37.16Q746.93-37.16 748.05-36.07 749.18-34.99 749.18-33.42L749.18-33.42Q749.18-31.88 748.06-30.82 746.95-29.76 745.37-29.76ZM739.14 0L739.14-2.69Q741.41-2.69 741.99-3.11 742.56-3.54 742.68-4.03 742.8-4.52 742.8-5.25L742.8-5.25 742.8-18.7Q742.8-20.46 742.5-21 742.19-21.53 740.85-21.53L740.85-21.53 739.09-21.53 739.09-24.22Q741.49-24.22 742.85-24.57 744.22-24.93 744.78-25.09 745.34-25.24 746-25.24L746-25.24Q747.27-25.24 747.67-24.5 748.08-23.75 748.08-22.12L748.08-22.12 748.08-5.25Q748.08-3.71 748.57-3.32L748.57-3.32Q749.4-2.69 751.71-2.69L751.71-2.69 751.71 0 739.14 0ZM770.63-21.58L770.63-21.58Q766.63-21.58 764.14-19.09L764.14-19.09 764.14-5.25Q764.14-3.74 764.63-3.34L764.63-3.34Q765.48-2.69 767.85-2.69L767.85-2.69 767.85 0 755.45 0 755.45-2.69Q757.55-2.69 758.08-3.11 758.62-3.54 758.74-4.03 758.87-4.52 758.87-5.25L758.87-5.25 758.87-18.55Q758.87-20.31 758.56-20.85 758.26-21.39 756.89-21.39L756.89-21.39 755.4-21.39 755.4-24.07Q757.69-24.07 759-24.43 760.31-24.78 760.86-24.94 761.4-25.1 762.04-25.1L762.04-25.1Q763.33-25.1 763.74-24.35 764.14-23.61 764.14-21.97L764.14-21.97Q766.75-24.17 770.19-24.95L770.19-24.95Q771.34-25.22 772.44-25.22L772.44-25.22Q780.35-25.22 780.35-14.75L780.35-14.75 780.35-5.3Q780.35-3.69 780.81-3.19 781.28-2.69 783.35-2.69L783.35-2.69 783.35 0 771.8 0 771.8-2.69Q774.03-2.69 774.48-3.14 774.93-3.59 775-4.08 775.08-4.57 775.08-5.3L775.08-5.3 775.08-14.43Q775.08-17.82 774.44-19.09L774.44-19.09Q773.2-21.58 770.63-21.58ZM804.93-23.34L804.93-23.34Q807.11-25.9 810.57-25.9L810.57-25.9Q811.74-25.9 812.64-25.04 813.53-24.17 813.53-22.89 813.53-21.61 812.76-20.86 811.99-20.12 810.91-20.12 809.84-20.12 809.09-20.73 808.35-21.34 808.28-22.61L808.28-22.61Q807.4-22.27 806.67-21.58L806.67-21.58Q808.13-19.46 808.13-16.78 808.13-14.11 807.31-12.44 806.49-10.77 805.09-9.58 803.69-8.4 801.83-7.76 799.98-7.13 798.5-7.13 797.02-7.13 796.27-7.2L796.27-7.2Q794.51-6.81 793.9-5.71L793.9-5.71Q793.73-5.44 793.73-5.1L793.73-5.1Q793.73-4.37 795.04-4.05 796.36-3.74 799.45-3.48 802.54-3.22 804.55-2.87 806.57-2.51 808.03-1.76L808.03-1.76Q811.13-0.12 811.13 3.81 811.13 7.74 807.3 10.1 803.47 12.45 797.93 12.45L797.93 12.45Q789.23 12.45 787.06 8.03L787.06 8.03Q786.4 6.69 786.4 5.08L786.4 5.08Q786.4 0.93 791.46-1.66L791.46-1.66Q789.72-2.69 789.72-4.83 789.72-6.98 792.43-8.2L792.43-8.2Q790.14-9.08 788.82-11.34 787.5-13.6 787.5-15.94L787.5-15.94Q787.5-20.34 790.66-22.79 793.82-25.24 798.1-25.24 802.37-25.24 804.93-23.34ZM797.93-9.94L797.93-9.94Q801.15-9.94 802.39-13.35L802.39-13.35Q802.83-14.53 802.83-16.26L802.83-16.26Q802.83-19.48 801.42-21.02 800-22.56 797.93-22.56L797.93-22.56Q794.53-22.56 793.26-19.12L793.26-19.12Q792.82-17.87 792.82-16.16L792.82-16.16Q792.82-13.04 794.35-11.49 795.87-9.94 797.93-9.94ZM794.07-0.12L794.07-0.12Q791.65 1.17 791.65 4.27L791.65 4.27Q791.65 6.84 793.7 8.18 795.75 9.52 799.1 9.52L799.1 9.52Q804.35 9.52 806.01 6.74L806.01 6.74Q806.54 5.88 806.54 4.81L806.54 4.81Q806.54 1.27 800.49 0.71L800.49 0.71Q798.58 0.51 796.92 0.37 795.26 0.22 794.07-0.12ZM831.78 0L831.78-2.69Q834.37-2.69 835.01-3.14 835.64-3.59 835.76-4.1 835.88-4.61 835.88-5.35L835.88-5.35 835.88-31.27Q835.88-32.86 835.35-33.25L835.35-33.25Q834.37-33.94 831.78-33.94L831.78-33.94 831.78-36.62 844.89-36.62Q860.66-36.62 863.86-26.27L863.86-26.27Q864.84-23.05 864.84-19.35 864.84-15.65 864.11-12.85 863.37-10.06 862.06-7.91L862.06-7.91Q859.54-3.83 855.16-1.92 850.78 0 845.38 0L845.38 0 831.78 0ZM841.38-2.71L845.92-2.71Q858.47-2.71 858.47-19.07L858.47-19.07Q858.47-26.05 855-30.11 851.53-34.18 844.67-34.18L844.67-34.18 841.38-34.18 841.38-2.71ZM868.74 0L868.74-2.69Q870.84-2.69 871.38-3.11 871.92-3.54 872.03-4.03 872.14-4.52 872.14-5.25L872.14-5.25 872.14-18.7Q872.14-20.46 871.83-21 871.53-21.53 870.18-21.53L870.18-21.53 868.69-21.53 868.69-24.22Q871.01-24.22 872.3-24.57 873.58-24.93 874.13-25.09 874.68-25.24 875.31-25.24L875.31-25.24Q876.56-25.24 876.98-24.51 877.41-23.78 877.41-22.12L877.41-22.12 877.41-21.63Q879.51-24.1 882.17-24.95L882.17-24.95Q883.12-25.24 884.08-25.24L884.08-25.24Q885.91-25.24 886.92-24.19 887.93-23.14 887.93-21.61 887.93-20.07 886.96-19.09 885.98-18.12 884.59-18.12L884.59-18.12Q883.22-18.12 882.33-19.09 881.44-20.07 881.54-21.53L881.54-21.53Q880.54-21.39 879.4-20.62 878.26-19.85 877.41-18.53L877.41-18.53 877.41-5.47Q877.41-4.54 877.57-3.99 877.73-3.44 878.42-3.06 879.12-2.69 882.61-2.69L882.61-2.69 882.61 0 868.74 0ZM913.61-11.25L913.61-11.25 896.67-11.25Q896.67-7.06 898.66-4.76 900.65-2.47 903.58-2.47L903.58-2.47Q907.51-2.47 909.22-5.71L909.22-5.71 912.86-5.74Q912.3-3.13 909.65-1.32 907 0.49 902.51 0.49 898.01 0.49 894.74-2.29L894.74-2.29Q890.84-5.64 890.84-11.72 890.84-17.8 893.95-21.52 897.06-25.24 902.87-25.24L902.87-25.24Q910.51-25.24 912.76-19.09L912.76-19.09Q913.66-16.63 913.66-14.43 913.66-12.23 913.61-11.25ZM907.97-14.92L907.97-14.92Q907.97-22.39 902.9-22.39L902.9-22.39Q900.04-22.39 898.44-20.17 896.84-17.94 896.69-14.01L896.69-14.01 907.95-14.01Q907.97-14.48 907.97-14.92ZM939.2-16.8L939.2-5.83Q939.2-2.93 940.34-2.93L940.34-2.93Q941.44-2.93 941.96-3.67 942.47-4.42 942.47-6.37L942.47-6.37 945.03-6.37Q945.06-6.05 945.06-5.37L945.06-5.37Q945.06-3.17 943.96-1.56L943.96-1.56Q942.62 0.49 939.69 0.49L939.69 0.49Q937.78 0.49 936.44-0.59 935.1-1.66 934.58-3.42L934.58-3.42Q931.04 0.49 925.62 0.49L925.62 0.49Q922.64 0.49 920.44-1.26 918.23-3 918.23-6.13L918.23-6.13Q918.23-11.55 926.23-14.14L926.23-14.14Q931.31-15.75 932.31-16.37 933.31-16.99 933.62-17.64 933.92-18.29 933.92-19.09L933.92-19.09Q933.92-20.53 932.51-21.5 931.09-22.46 928.82-22.46 926.55-22.46 924.82-21.24L924.82-21.24Q926.04-20.34 926.04-18.92 926.04-17.5 925.1-16.65 924.16-15.8 922.83-15.8 921.5-15.8 920.63-16.6 919.76-17.41 919.76-18.85L919.76-18.85Q919.76-21.7 922.64-23.47 925.53-25.24 929.65-25.24L929.65-25.24Q937.02-25.24 938.66-20.46L938.66-20.46Q939.2-18.87 939.2-16.8L939.2-16.8ZM928.43-11.91Q926.28-10.99 925.21-9.53 924.13-8.08 924.13-6.37 924.13-4.66 925.06-3.78 925.99-2.91 927.38-2.91L927.38-2.91Q930.21-2.91 932.07-4.9 933.92-6.88 933.92-10.45L933.92-10.45 933.92-14.21Q932.36-13.4 930.62-12.74 928.87-12.08 928.43-11.91L928.43-11.91ZM978.82-25.22L978.82-25.22Q986-25.22 986-14.75L986-14.75 986-5.3Q986-3.69 986.46-3.19 986.92-2.69 989-2.69L989-2.69 989 0 977.45 0 977.45-2.69Q979.67-2.69 980.12-3.14 980.58-3.59 980.65-4.08 980.72-4.57 980.72-5.3L980.72-5.3 980.72-14.43Q980.72-17.85 980.19-19.1 979.65-20.36 978.79-20.97 977.94-21.58 976.87-21.58L976.87-21.58Q974.91-21.58 973.13-20.8 971.35-20.02 970.3-18.75L970.3-18.75Q970.64-16.97 970.64-14.75L970.64-14.75 970.64-5.3Q970.64-3.69 971.1-3.19 971.57-2.69 973.64-2.69L973.64-2.69 973.64 0 962.1 0 962.1-2.69Q964.32-2.69 964.77-3.14 965.22-3.59 965.29-4.08 965.37-4.57 965.37-5.3L965.37-5.3 965.37-14.43Q965.37-17.85 964.83-19.1 964.29-20.36 963.44-20.97 962.58-21.58 961.51-21.58L961.51-21.58Q959.65-21.58 957.94-20.87 956.24-20.17 955.14-18.99L955.14-18.99 955.14-5.25Q955.14-3.71 955.63-3.32L955.63-3.32Q956.5-2.69 958.82-2.69L958.82-2.69 958.82 0 946.45 0 946.45-2.69Q948.55-2.69 949.08-3.11 949.62-3.54 949.74-4.03 949.86-4.52 949.86-5.25L949.86-5.25 949.86-18.55Q949.86-20.31 949.56-20.85 949.25-21.39 947.89-21.39L947.89-21.39 946.4-21.39 946.4-24.07Q948.69-24.07 950.02-24.43 951.35-24.78 951.91-24.94 952.48-25.1 953.14-25.1L953.14-25.1Q954.38-25.1 954.76-24.37 955.14-23.63 955.14-21.97L955.14-21.97 955.14-21.92Q957.63-24.1 961.19-24.95L961.19-24.95Q962.36-25.22 963.46-25.22L963.46-25.22Q967.83-25.22 969.54-21.31L969.54-21.31Q972.28-23.85 976.13-24.85L976.13-24.85Q977.5-25.22 978.82-25.22ZM1005.99-21.51L1005.99-21.51Q1004.74-22.75 1001.91-22.75 999.08-22.75 998.08-20.7L998.08-20.7Q997.81-20.12 997.81-19.37 997.81-18.63 998.4-17.93 998.98-17.24 999.91-16.61 1000.84-15.99 1002-15.41 1003.16-14.82 1004.4-14.14 1005.65-13.45 1007.04-12.7L1007.04-12.7Q1012.14-9.91 1012.14-6.53 1012.14-3.15 1009.5-1.33 1006.87 0.49 1002.51 0.49 998.15 0.49 995.32-1.07 992.49-2.64 992.49-5.1L992.49-5.1Q992.49-6.45 993.38-7.37 994.27-8.3 995.65-8.3 997.03-8.3 997.93-7.43 998.84-6.57 998.84-5.37 998.84-4.17 998.01-3.34L998.01-3.34Q999.96-2.22 1002.85-2.22 1005.74-2.22 1006.92-3.56L1006.92-3.56Q1007.41-4.1 1007.41-4.96L1007.41-4.96Q1007.41-6.98 1002.91-9.18L1002.91-9.18Q999.79-10.72 998.23-11.6L998.23-11.6Q993.22-14.43 993.22-18.43L993.22-18.43Q993.22-21.51 995.77-23.36 998.32-25.22 1002.28-25.22 1006.23-25.22 1008.93-23.74 1011.63-22.27 1011.63-19.92L1011.63-19.92Q1011.63-18.55 1010.97-17.9L1010.97-17.9Q1009.82-16.75 1008.77-16.75L1008.77-16.75Q1007.06-16.75 1006.2-17.61 1005.33-18.48 1005.33-19.6 1005.33-20.73 1005.99-21.51Z" opacity="1" transform="matrix(1,0,0,1,0,0)" fill="#f4f3f0" class="slogan-text-1" data-fill-palette-color="secondary" id="text-1"></path></svg></g></svg></g></svg></g></svg></g><g transform="matrix(1,0,0,1,144.3572929376874,0)"><svg viewBox="0 0 106.80541412462522 106.80541412462522" height="106.80541412462522" width="106.80541412462522"><g><svg></svg></g><g id="icon-0"><svg viewBox="0 0 106.80541412462522 106.80541412462522" height="106.80541412462522" width="106.80541412462522"><g><path d="M0 53.403c0-29.494 23.909-53.403 53.403-53.403 29.494 0 53.403 23.909 53.402 53.403 0 29.494-23.909 53.403-53.402 53.402-29.494 0-53.403-23.909-53.403-53.402zM53.403 104.321c28.122 0 50.919-22.797 50.918-50.918 0-28.122-22.797-50.919-50.918-50.919-28.122 0-50.919 22.797-50.919 50.919 0 28.122 22.797 50.919 50.919 50.918z" data-fill-palette-color="accent" fill="#1e72e9" stroke="transparent"></path></g><g transform="matrix(1,0,0,1,26.048130714234755,26.039835401493747)"><svg viewBox="0 0 54.709152696155705 54.72574332163772" height="54.72574332163772" width="54.709152696155705"><g><svg xmlns="http://www.w3.org/2000/svg" data-name="Layer 1" viewBox="0.5560848913277571 0.5260848913277545 98.92783021734449 98.9578302173445" x="0" y="0" height="54.72574332163772" width="54.709152696155705" class="icon-cg-0" data-fill-palette-color="accent" id="cg-0"><path d="M34.08 87.59c-4.84-3.35-11.41-6-18.34-7.55q-3.13-0.72-6.29-1.32l-0.79-0.15-0.38-0.07-0.21-0.06a2.56 2.56 0 0 1-0.77-0.36 2.71 2.71 0 0 1-1-1.3 2.65 2.65 0 0 1-0.1-1.59l0.92-2.79q1-3.07 1.84-6.19a125.33 125.33 0 0 0 2.74-12.64L11.93 52a2.64 2.64 0 0 1 0.21-0.65 2.36 2.36 0 0 1 1-1 2.31 2.31 0 0 1 1.37-0.3 2.13 2.13 0 0 1 0.36 0.06c0.15 0 0.49 0.13 0.73 0.19l1.57 0.42 2.74 0.89a2.33 2.33 0 0 0 1 0.1l0.16 0a4.43 4.43 0 0 0 3.61-2.84 5 5 0 0 0 0.16-0.53l0.05-0.21 0-0.12c0-0.1 0-0.21 0.06-0.31a4.45 4.45 0 0 0 0.05-0.62 4.59 4.59 0 0 0-0.13-1.17 4.67 4.67 0 0 0-0.16-0.52l-0.11-0.29a4.21 4.21 0 0 1-0.18-2.56A4.31 4.31 0 0 1 28 39.29a4.48 4.48 0 0 1 2.48 0.44 4.23 4.23 0 0 1 2.28 4.18 4.19 4.19 0 0 1-1 2.34l-0.22 0.25-0.12 0.12-0.06 0.06-0.13 0.12a4.69 4.69 0 0 0-0.91 1.11 4.42 4.42 0 0 0-0.33 0.71q-0.07 0.19-0.12 0.38l-0.06 0.25-0.06 0.28a4.55 4.55 0 0 0-0.1 0.76 4.41 4.41 0 0 0 2 3.88l0.11 0.07a2.34 2.34 0 0 0 0.92 0.34q2.35 0.35 4.7 0.61c3.82 0.42 7.07 0 6.93-1.36s-2.64-2.49-6.38-3.23c-0.85-0.17-1.7-0.36-2.55-0.54l0 0A9.41 9.41 0 0 0 38 45.29 9.53 9.53 0 0 0 30.9 34a9.61 9.61 0 0 0-10 3.51 9.44 9.44 0 0 0-1.48 8.76l0 0.09-1-0.27-1.35-0.37-0.68-0.18-0.91-0.22a7.35 7.35 0 0 0-3.91 0.38A7.23 7.23 0 0 0 8.53 48a6.77 6.77 0 0 0-1.35 2.26 4.85 4.85 0 0 0-0.2 0.64l-0.14 0.57-0.21 0.91L5.76 56q-0.89 3.62-1.87 7.23T1.81 70.39l-0.56 1.78L1 73.07c0 0.11-0.11 0.37-0.18 0.62a5.52 5.52 0 0 0-0.16 0.74 8.19 8.19 0 0 0 6.1 9.24l0.74 0.15 0.47 0.07 0.93 0.14 1.85 0.3q3.69 0.63 7.35 1.45a121.07 121.07 0 0 1 14.37 4.15 5.6 5.6 0 0 0 2.87 0.05C36.39 89.59 35.54 88.61 34.08 87.59Z" fill="#1e72e9" data-fill-palette-color="accent"></path><path d="M56.1 32.71a4.19 4.19 0 0 1-2.34-1l-0.25-0.22-0.12-0.12-0.06-0.06-0.12-0.13a4.69 4.69 0 0 0-1.11-0.91A4.43 4.43 0 0 0 51.4 30L51 29.86l-0.25-0.06-0.28-0.06a4.55 4.55 0 0 0-0.76-0.1 4.41 4.41 0 0 0-3.88 2l-0.07 0.11a2.34 2.34 0 0 0-0.34 0.92q-0.35 2.35-0.61 4.7c-0.42 3.82 0 7.07 1.36 6.93s2.49-2.64 3.23-6.38c0.17-0.85 0.36-1.7 0.54-2.55l0 0A9.41 9.41 0 0 0 54.71 38 9.53 9.53 0 0 0 66 30.9a9.61 9.61 0 0 0-3.51-10 9.45 9.45 0 0 0-8.76-1.48l-0.09 0 0.27-1 0.37-1.35 0.18-0.68c0.06-0.21 0.16-0.61 0.22-0.91a7.35 7.35 0 0 0-0.38-3.91A7.23 7.23 0 0 0 52 8.53a6.77 6.77 0 0 0-2.26-1.35 4.86 4.86 0 0 0-0.64-0.2l-0.57-0.14-0.91-0.21L44 5.76q-3.62-0.89-7.23-1.87T29.61 1.81l-1.78-0.56L26.93 1 26.31 0.79a5.52 5.52 0 0 0-0.74-0.16 8.19 8.19 0 0 0-9.24 6.1l-0.15 0.74-0.07 0.47L16 8.88l-0.3 1.85q-0.63 3.69-1.45 7.35a121.08 121.08 0 0 1-4.15 14.37A5.6 5.6 0 0 0 10 35.32c0.4 1.08 1.39 0.23 2.41-1.24 3.35-4.84 6-11.41 7.55-18.34q0.72-3.13 1.32-6.29l0.15-0.79 0.07-0.38 0.06-0.21a2.55 2.55 0 0 1 0.36-0.77 2.71 2.71 0 0 1 1.3-1 2.65 2.65 0 0 1 1.59-0.1l2.79 0.92q3.07 1 6.19 1.84a125.35 125.35 0 0 0 12.64 2.74l1.57 0.25a2.64 2.64 0 0 1 0.65 0.21 2.35 2.35 0 0 1 1 1 2.31 2.31 0 0 1 0.3 1.37 2.14 2.14 0 0 1-0.06 0.36c0 0.15-0.13 0.49-0.19 0.73l-0.42 1.57-0.89 2.74a2.33 2.33 0 0 0-0.1 1l0 0.16a4.43 4.43 0 0 0 2.84 3.61 5 5 0 0 0 0.53 0.16l0.21 0.05 0.12 0 0.31 0.06a4.45 4.45 0 0 0 0.62 0.05 4.59 4.59 0 0 0 1.17-0.13 4.67 4.67 0 0 0 0.52-0.16l0.29-0.11a4.21 4.21 0 0 1 2.56-0.18A4.31 4.31 0 0 1 60.71 28a4.48 4.48 0 0 1-0.44 2.48A4.23 4.23 0 0 1 56.1 32.71Z" fill="#1e72e9" data-fill-palette-color="accent"></path><path d="M93.26 16.33l-0.74-0.15-0.47-0.07L91.12 16l-1.85-0.3q-3.69-0.63-7.35-1.45a121.07 121.07 0 0 1-14.37-4.15A5.6 5.6 0 0 0 64.68 10c-1.08 0.4-0.23 1.39 1.24 2.41 4.84 3.35 11.41 6 18.34 7.55q3.13 0.72 6.29 1.32l0.79 0.15 0.38 0.07 0.21 0.06a2.55 2.55 0 0 1 0.77 0.36 2.71 2.71 0 0 1 1 1.3 2.65 2.65 0 0 1 0.1 1.59l-0.92 2.79q-1 3.07-1.84 6.19a125.35 125.35 0 0 0-2.74 12.64L88.07 48a2.64 2.64 0 0 1-0.21 0.65 2.36 2.36 0 0 1-1 1 2.31 2.31 0 0 1-1.37 0.3 2.13 2.13 0 0 1-0.36-0.06c-0.15 0-0.49-0.13-0.73-0.19l-1.57-0.42-2.74-0.89a2.33 2.33 0 0 0-1-0.1l-0.16 0a4.43 4.43 0 0 0-3.61 2.84 5 5 0 0 0-0.16 0.53l-0.05 0.21 0 0.12c0 0.1 0 0.21-0.06 0.31a4.46 4.46 0 0 0-0.05 0.62 4.59 4.59 0 0 0 0.13 1.17 4.67 4.67 0 0 0 0.16 0.52l0.11 0.29a4.21 4.21 0 0 1 0.18 2.56A4.31 4.31 0 0 1 72 60.71a4.48 4.48 0 0 1-2.48-0.44 4.23 4.23 0 0 1-2.28-4.18 4.19 4.19 0 0 1 1-2.34l0.22-0.25 0.12-0.12 0.06-0.06 0.13-0.12a4.69 4.69 0 0 0 0.91-1.11A4.43 4.43 0 0 0 70 51.4q0.07-0.19 0.12-0.38l0.06-0.25 0.06-0.28a4.55 4.55 0 0 0 0.1-0.76 4.41 4.41 0 0 0-2-3.88l-0.11-0.07a2.34 2.34 0 0 0-0.92-0.34q-2.35-0.35-4.7-0.61c-3.82-0.42-7.07 0-6.93 1.36s2.64 2.49 6.38 3.23c0.85 0.17 1.7 0.36 2.55 0.54l0 0A9.41 9.41 0 0 0 62 54.71 9.53 9.53 0 0 0 69.1 66a9.61 9.61 0 0 0 10-3.51 9.44 9.44 0 0 0 1.48-8.76l0-0.09 1 0.27 1.35 0.37 0.68 0.18 0.91 0.22a7.35 7.35 0 0 0 3.91-0.38A7.23 7.23 0 0 0 91.47 52a6.77 6.77 0 0 0 1.35-2.26 4.86 4.86 0 0 0 0.2-0.64l0.14-0.57 0.21-0.91L94.24 44q0.89-3.62 1.87-7.23t2.08-7.18l0.56-1.78 0.29-0.89c0-0.11 0.11-0.37 0.18-0.62a5.53 5.53 0 0 0 0.16-0.74 8.19 8.19 0 0 0-6.1-9.24Z" fill="#1e72e9" data-fill-palette-color="accent"></path><path d="M87.59 65.92c-3.35 4.84-6 11.41-7.55 18.34q-0.72 3.13-1.32 6.29l-0.15 0.79-0.07 0.38-0.06 0.21a2.55 2.55 0 0 1-0.36 0.77 2.71 2.71 0 0 1-1.3 1 2.65 2.65 0 0 1-1.59 0.1l-2.79-0.92q-3.07-1-6.19-1.84a125.35 125.35 0 0 0-12.64-2.74L52 88.07a2.64 2.64 0 0 1-0.65-0.21 2.36 2.36 0 0 1-1-1 2.31 2.31 0 0 1-0.3-1.37 2.13 2.13 0 0 1 0.06-0.36c0-0.15 0.13-0.49 0.19-0.73l0.42-1.57 0.89-2.74a2.33 2.33 0 0 0 0.1-1l0-0.16a4.43 4.43 0 0 0-2.84-3.61 5 5 0 0 0-0.53-0.16l-0.21-0.05-0.12 0-0.31-0.06a4.45 4.45 0 0 0-0.62-0.05 4.59 4.59 0 0 0-1.17 0.13 4.67 4.67 0 0 0-0.52 0.16l-0.29 0.11a4.21 4.21 0 0 1-2.56 0.18A4.31 4.31 0 0 1 39.29 72a4.48 4.48 0 0 1 0.44-2.48 4.23 4.23 0 0 1 4.18-2.28 4.19 4.19 0 0 1 2.34 1l0.25 0.22 0.12 0.12 0.06 0.06 0.12 0.13a4.69 4.69 0 0 0 1.11 0.91 4.43 4.43 0 0 0 0.71 0.33l0.38 0.12 0.25 0.06 0.28 0.06a4.55 4.55 0 0 0 0.76 0.1 4.41 4.41 0 0 0 3.88-2l0.07-0.11a2.34 2.34 0 0 0 0.34-0.92q0.35-2.35 0.61-4.7c0.42-3.82 0-7.07-1.36-6.93s-2.49 2.64-3.23 6.38c-0.17 0.85-0.36 1.7-0.54 2.55l0 0A9.41 9.41 0 0 0 45.29 62 9.53 9.53 0 0 0 34 69.1a9.61 9.61 0 0 0 3.51 10 9.44 9.44 0 0 0 8.76 1.48l0.09 0-0.27 1-0.37 1.35-0.18 0.68c-0.06 0.21-0.16 0.61-0.22 0.91a7.35 7.35 0 0 0 0.38 3.91A7.23 7.23 0 0 0 48 91.47a6.77 6.77 0 0 0 2.26 1.35 4.87 4.87 0 0 0 0.64 0.2l0.57 0.14 0.91 0.21 3.63 0.87q3.62 0.89 7.23 1.87t7.18 2.08l1.78 0.56 0.89 0.29 0.62 0.18a5.52 5.52 0 0 0 0.74 0.16 8.19 8.19 0 0 0 9.24-6.1l0.15-0.74 0.07-0.47 0.14-0.93 0.3-1.85q0.63-3.69 1.45-7.35a121.08 121.08 0 0 1 4.15-14.37A5.6 5.6 0 0 0 90 64.68C89.59 63.61 88.61 64.46 87.59 65.92Z" fill="#1e72e9" data-fill-palette-color="accent"></path></svg></g></svg></g></svg></g></svg></g><g></g></svg></g><defs></defs></svg><rect width="395.52" height="165.26165728614166" fill="none" stroke="none" visibility="hidden"></rect></g></svg></g></svg>